<?xml version="1.0" encoding="utf-8"?>
<!-- Generator: Adobe Illustrator 16.0.0, SVG Export Plug-In . SVG Version: 6.00 Build 0)  -->
<!DOCTYPE svg PUBLIC "-//W3C//DTD SVG 1.1//EN" "http://www.w3.org/Graphics/SVG/1.1/DTD/svg11.dtd">
<svg version="1.1" id="Layer_1" xmlns="http://www.w3.org/2000/svg" xmlns:xlink="http://www.w3.org/1999/xlink" x="0px" y="0px"
	 width="460.004px" height="117.432px" viewBox="0 0 460.004 117.432" enable-background="new 0 0 460.004 117.432"
	 xml:space="preserve">
<g>
	<g>
		<g>
			<path fill="#FFFFFF" d="M220.648,32.357h11.078l-22.515,63.613h-9.381l-15.993-45.746l-16.172,45.746h-9.381l-22.426-63.613
				h11.704l15.903,47.441l16.529-47.441h8.22l16.171,47.799L220.648,32.357z"/>
			<path fill="#FFFFFF" d="M239.143,30.391h12.419v10.99h-12.419V30.391z M239.856,95.971V50.852h11.079v45.119H239.856z"/>
			<path fill="#FFFFFF" d="M324.108,50.852h10.899l-17.689,45.119h-9.738l-11.168-29.574l-10.901,29.574h-9.827l-17.69-45.119
				h11.437l11.614,31.807l11.704-31.807h8.041l11.704,32.074L324.108,50.852z"/>
			<path fill="#FFFFFF" d="M380.755,73.992h-31.092c0.237,4.824,1.443,8.383,3.618,10.676c2.174,2.293,5.405,3.439,9.694,3.439
				c4.943,0,9.529-1.607,13.759-4.824l3.217,7.684c-2.145,1.729-4.78,3.113-7.907,4.154s-6.299,1.564-9.516,1.564
				c-7.387,0-13.193-2.084-17.423-6.254s-6.343-9.887-6.343-17.154c0-4.586,0.923-8.668,2.77-12.242
				c1.846-3.572,4.437-6.355,7.772-8.354c3.336-1.994,7.117-2.992,11.348-2.992c6.194,0,11.093,2.01,14.697,6.031
				c3.604,4.02,5.405,9.545,5.405,16.572V73.992z M353.639,60.367c-1.876,1.756-3.082,4.303-3.619,7.639h20.997
				c-0.357-3.396-1.385-5.957-3.083-7.684c-1.697-1.729-4.035-2.592-7.014-2.592S355.516,58.609,353.639,60.367z"/>
			<path fill="#FFFFFF" d="M418.994,50.494l-0.09,10.186c-1.907-0.773-3.872-1.162-5.896-1.162c-3.813,0-6.716,1.104-8.711,3.307
				c-1.996,2.203-2.994,5.123-2.994,8.756v24.391h-11.078V63.627c0-4.764-0.238-9.023-0.715-12.775h10.454l0.894,7.951
				c1.13-2.918,2.917-5.15,5.36-6.701c2.441-1.549,5.211-2.322,8.31-2.322C416.254,49.779,417.743,50.018,418.994,50.494z"/>
			<path fill="#FFFFFF" d="M421.854,90.967l3.127-7.861c4.824,3.572,10.333,5.359,16.528,5.359c2.681,0,4.75-0.447,6.21-1.34
				c1.459-0.893,2.189-2.145,2.189-3.752c0-1.371-0.508-2.457-1.52-3.262c-1.014-0.805-2.74-1.504-5.182-2.1l-7.505-1.697
				c-8.22-1.787-12.33-5.986-12.33-12.598c0-2.738,0.773-5.166,2.323-7.281c1.548-2.113,3.722-3.768,6.521-4.959
				s6.046-1.787,9.739-1.787c3.216,0,6.313,0.492,9.292,1.475c2.978,0.982,5.598,2.398,7.862,4.244l-3.306,7.594
				c-4.527-3.336-9.174-5.004-13.938-5.004c-2.563,0-4.558,0.479-5.987,1.43c-1.429,0.953-2.144,2.264-2.144,3.932
				c0,1.311,0.431,2.354,1.296,3.127c0.862,0.775,2.337,1.43,4.423,1.967l7.683,1.697c4.468,1.012,7.729,2.576,9.784,4.689
				c2.054,2.115,3.082,4.869,3.082,8.266c0,4.17-1.668,7.475-5.004,9.916c-3.336,2.443-7.893,3.664-13.67,3.664
				C433.169,96.686,426.678,94.779,421.854,90.967z"/>
		</g>
	</g>
	<g>
		<path fill="#FFFFFF" d="M107.444,57.785c-2.045,4.073-4.277,8.122-6.698,12.146c0.491,1.44,1.038,2.789,1.645,4.049
			c0.604,1.26,1.3,2.348,2.085,3.264c0.786,0.916,1.757,1.821,2.75,2.256c2.682,1.175,5.457-0.272,6.855-1.221
			c2.162-6.12,3.351-12.701,3.351-19.562c0-6.189-0.964-12.153-2.739-17.755c-0.577,1.668-1.234,3.413-1.972,5.241
			C111.247,49.853,109.488,53.712,107.444,57.785z"/>
		<path fill="#FFFFFF" d="M110.745,31.512c1.553,2.963,2.863,6.072,3.898,9.307C113.608,37.584,112.298,34.476,110.745,31.512z"/>
		<path fill="#FFFFFF" d="M114.073,78.301c-0.197,0.559-0.407,1.111-0.621,1.662C113.666,79.412,113.876,78.86,114.073,78.301z"/>
		<path fill="#FFFFFF" d="M16.245,18.199c0.369-0.388,0.735-0.777,1.115-1.154C16.98,17.422,16.614,17.812,16.245,18.199z"/>
		<path fill="#FFFFFF" d="M14.517,20.089c0.332-0.38,0.664-0.761,1.006-1.132C15.181,19.328,14.849,19.709,14.517,20.089z"/>
		<path fill="#FFFFFF" d="M104.868,24.954c-0.785,0.77-1.538,1.792-2.257,3.067c-0.721,1.275-1.383,2.748-1.988,4.417
			c-0.605,1.668-1.129,3.402-1.57,5.202s-0.785,3.606-1.03,5.422c-0.245,1.816-0.369,3.509-0.369,5.079
			c0,1.604,0.082,3.601,0.246,5.987c0.163,2.389,0.458,4.892,0.884,7.51c1.766-3.142,3.394-6.266,4.884-9.374
			c1.487-3.108,2.764-6.086,3.826-8.933c1.063-2.846,1.897-5.479,2.504-7.9c0.356-1.429,0.596-2.73,0.742-3.932
			c-2.242-4.276-4.992-8.243-8.176-11.817c1.249,1.403,2.432,2.866,3.544,4.384C105.694,24.259,105.281,24.55,104.868,24.954z"/>
		<path fill="#FFFFFF" d="M24.508,14.648c1.946-0.409,3.853-0.613,5.717-0.613c2.323,0,4.678,0.253,7.066,0.76
			c2.389,0.509,4.712,1.228,6.97,2.159c2.257,0.934,4.375,2.063,6.354,3.388s3.714,2.821,5.202,4.49
			c1.489,1.668,2.658,3.492,3.509,5.472s1.276,4.082,1.276,6.306c0,3.927-0.409,7.787-1.228,11.582
			c-0.817,3.796-1.783,7.574-2.895,11.336c-1.113,3.764-2.25,7.509-3.411,11.238S51,78.274,50.346,82.103
			c5.791-7.133,11.14-14.632,16.047-22.502c4.908-7.867,9.356-15.956,13.35-24.268c0.491-0.687,1.087-1.186,1.79-1.497
			c0.705-0.31,1.399-0.465,2.087-0.465c0.522,0,0.933,0.254,1.226,0.76c0.296,0.508,0.507,1.154,0.64,1.938
			c0.13,0.786,0.202,1.669,0.22,2.65s0.024,1.947,0.024,2.896c-1.439,3.434-2.937,6.902-4.489,10.403
			c-1.555,3.501-2.97,7.042-4.246,10.625c-1.275,3.582-2.33,7.214-3.164,10.895c-0.835,3.681-1.253,7.402-1.253,11.164
			c0,0.916,0.107,1.677,0.32,2.282c0.212,0.605,0.473,1.088,0.784,1.447c0.312,0.36,0.67,0.613,1.08,0.761
			c0.409,0.147,0.81,0.222,1.202,0.222c0.981,0,2.062-0.442,3.239-1.325c1.178-0.884,2.404-2.028,3.681-3.436
			c1.276-1.406,2.553-2.969,3.828-4.688c1.275-1.717,2.485-3.41,3.631-5.079c1.145-1.668,2.177-3.214,3.092-4.638
			c0.917-1.423,1.669-2.542,2.258-3.36c-0.491-2.912-0.81-5.783-0.958-8.614c-0.147-2.829-0.221-5.324-0.221-7.483
			c0-2.093,0.106-4.399,0.32-6.919c0.212-2.52,0.556-5.063,1.03-7.632c0.474-2.567,1.104-5.063,1.889-7.484
			c0.786-2.42,1.733-4.563,2.847-6.428c0.595-0.998,1.246-1.882,1.944-2.67C91.789,7.602,76.144,0.002,58.716,0.002
			c-16.129,0-30.735,6.507-41.348,17.034c0.489-0.225,0.965-0.467,1.471-0.67C20.671,15.63,22.562,15.058,24.508,14.648z"/>
		<path fill="#FFFFFF" d="M112.532,82.203c0.24-0.55,0.469-1.104,0.691-1.662C113.001,81.099,112.772,81.654,112.532,82.203z"/>
		<path fill="#FFFFFF" d="M109.211,83.501c-0.769,0.147-1.397,0.221-1.89,0.221c-1.177,0-2.249-0.221-3.214-0.663
			c-0.966-0.441-1.84-1.062-2.626-1.864c-0.785-0.802-1.489-1.75-2.109-2.846c-0.622-1.097-1.178-2.299-1.668-3.608
			c-2.422,3.729-4.631,7.224-6.626,10.479c-1.996,3.256-4.024,6.085-6.085,8.49c-2.062,2.404-4.262,4.302-6.602,5.692
			c-2.339,1.392-5.046,2.085-8.121,2.085c-0.981,0-1.832-0.358-2.553-1.079c-0.719-0.719-1.317-1.644-1.791-2.772
			c-0.475-1.13-0.834-2.396-1.079-3.804c-0.245-1.406-0.369-2.798-0.369-4.171c0-1.768,0.115-3.525,0.345-5.276
			c0.229-1.75,0.481-3.459,0.76-5.128c0.278-1.668,0.531-3.288,0.761-4.858c0.229-1.57,0.36-3.059,0.393-4.466
			c-1.569,1.799-3.14,3.886-4.711,6.258c-1.569,2.372-3.148,4.792-4.735,7.262c-1.588,2.472-3.158,4.9-4.712,7.288
			c-1.554,2.389-3.099,4.523-4.638,6.404c-1.538,1.882-3.042,3.395-4.514,4.54c-1.473,1.145-2.912,1.717-4.319,1.717
			c-0.491,0-0.892-0.351-1.202-1.055c-0.312-0.703-0.548-1.57-0.711-2.602c-0.165-1.029-0.279-2.117-0.345-3.263
			c-0.064-1.146-0.098-2.175-0.098-3.092c0-2.485,0.277-5.055,0.834-7.705c0.556-2.65,1.276-5.356,2.16-8.122
			c0.883-2.765,1.855-5.562,2.92-8.392c1.063-2.829,2.109-5.676,3.14-8.539c1.031-2.863,1.972-5.742,2.822-8.637
			c0.852-2.896,1.505-5.783,1.963-8.663c0-3.762-0.621-7.073-1.864-9.937c-1.244-2.862-2.913-5.259-5.006-7.19
			c-2.094-1.93-4.523-3.386-7.287-4.366c-2.766-0.982-5.67-1.474-8.712-1.474c-1.93,0-3.942,0.156-6.036,0.467
			c-2.094,0.312-4.016,0.858-5.766,1.644s-3.198,1.841-4.343,3.166c-1.146,1.325-1.719,3.019-1.719,5.079
			c0,1.374,0.311,2.625,0.933,3.754s1.473,2.135,2.552,3.019c1.08,0.884,2.331,1.66,3.755,2.33c1.423,0.672,2.92,1.22,4.489,1.645
			c1.571,0.426,3.182,0.745,4.835,0.957c1.651,0.213,3.245,0.319,4.784,0.319c1.146,0,2.322-0.099,3.533-0.295
			s2.396-0.449,3.559-0.76c1.161-0.312,2.282-0.654,3.361-1.031c1.081-0.376,2.078-0.761,2.994-1.153
			c0.295-0.196,0.556-0.294,0.785-0.294c0.393,0,0.67,0.195,0.834,0.589c0.163,0.393,0.245,0.817,0.245,1.275
			c0,0.654-0.131,1.211-0.393,1.669c-0.948,1.08-2.012,1.971-3.189,2.675c-1.178,0.703-2.413,1.269-3.705,1.693
			c-1.293,0.425-2.617,0.72-3.975,0.883c-1.358,0.164-2.708,0.245-4.05,0.245c-1.701,0-3.508-0.105-5.423-0.319
			c-1.913-0.212-3.819-0.571-5.716-1.079c-1.899-0.507-3.723-1.186-5.473-2.037c-1.75-0.85-3.288-1.93-4.614-3.239
			c-1.324-1.308-2.388-2.854-3.189-4.637c-0.495-1.103-0.819-2.329-1.009-3.649C2.077,40.976,0,49.604,0,58.718
			c0,32.428,26.288,58.716,58.716,58.716c24.071,0,44.748-14.491,53.813-35.221c-0.332,0.226-0.688,0.431-1.084,0.601
			C110.725,83.125,109.98,83.354,109.211,83.501z"/>
		<path fill="#FFFFFF" d="M8.332,28.564c0.204-0.341,0.419-0.676,0.63-1.013C8.751,27.889,8.536,28.224,8.332,28.564z"/>
		<path fill="#FFFFFF" d="M11.257,24.161c0.271-0.371,0.545-0.739,0.824-1.104C11.802,23.422,11.527,23.79,11.257,24.161z"/>
		<path fill="#FFFFFF" d="M7.01,30.88c0.156-0.289,0.323-0.571,0.483-0.857C7.333,30.309,7.166,30.591,7.01,30.88z"/>
		<path fill="#FFFFFF" d="M9.749,26.324c0.24-0.362,0.486-0.719,0.734-1.075C10.235,25.605,9.989,25.962,9.749,26.324z"/>
		<path fill="#FFFFFF" d="M5.786,33.27c0.021-0.043,0.045-0.084,0.065-0.127C5.831,33.186,5.808,33.227,5.786,33.27z"/>
		<path fill="#FFFFFF" d="M12.849,22.081c0.301-0.376,0.604-0.752,0.914-1.121C13.452,21.329,13.149,21.705,12.849,22.081z"/>
	</g>
</g>
</svg>
