<?xml version="1.0" encoding="utf-8"?>
<!-- Generator: Adobe Illustrator 16.0.0, SVG Export Plug-In . SVG Version: 6.00 Build 0)  -->
<!DOCTYPE svg PUBLIC "-//W3C//DTD SVG 1.1//EN" "http://www.w3.org/Graphics/SVG/1.1/DTD/svg11.dtd">
<svg version="1.1" id="Layer_1" xmlns="http://www.w3.org/2000/svg" xmlns:xlink="http://www.w3.org/1999/xlink" x="0px" y="0px"
	 width="460.004px" height="117.432px" viewBox="0 0 460.004 117.432" enable-background="new 0 0 460.004 117.432"
	 xml:space="preserve">
<g>
	<g>
		<g>
			<path fill="#DC1A5A" d="M220.648,32.357h11.078l-22.515,63.613h-9.381l-15.993-45.746l-16.172,45.746h-9.381l-22.426-63.613
				h11.704l15.903,47.441l16.529-47.441h8.22l16.171,47.799L220.648,32.357z"/>
			<path fill="#DC1A5A" d="M239.143,30.391h12.419v10.99h-12.419V30.391z M239.856,95.971V50.852h11.079v45.119H239.856z"/>
			<path fill="#DC1A5A" d="M324.108,50.852h10.899l-17.689,45.119h-9.738l-11.168-29.574l-10.901,29.574h-9.827l-17.69-45.119
				h11.437l11.614,31.807l11.704-31.807h8.041l11.704,32.074L324.108,50.852z"/>
			<path fill="#DC1A5A" d="M380.755,73.992h-31.092c0.237,4.824,1.443,8.383,3.618,10.676c2.174,2.293,5.405,3.439,9.694,3.439
				c4.943,0,9.529-1.607,13.759-4.824l3.217,7.684c-2.145,1.729-4.78,3.113-7.907,4.154s-6.299,1.564-9.516,1.564
				c-7.387,0-13.193-2.084-17.423-6.254s-6.343-9.887-6.343-17.154c0-4.586,0.923-8.668,2.77-12.242
				c1.846-3.572,4.437-6.355,7.772-8.354c3.336-1.994,7.117-2.992,11.348-2.992c6.194,0,11.093,2.01,14.697,6.031
				c3.604,4.02,5.405,9.545,5.405,16.572V73.992z M353.639,60.367c-1.876,1.756-3.082,4.303-3.619,7.639h20.997
				c-0.357-3.396-1.385-5.957-3.083-7.684c-1.697-1.729-4.035-2.592-7.014-2.592S355.516,58.609,353.639,60.367z"/>
			<path fill="#DC1A5A" d="M418.994,50.494l-0.09,10.186c-1.907-0.773-3.872-1.162-5.896-1.162c-3.813,0-6.716,1.104-8.711,3.307
				c-1.996,2.203-2.994,5.123-2.994,8.756v24.391h-11.078V63.627c0-4.764-0.238-9.023-0.715-12.775h10.454l0.894,7.951
				c1.13-2.918,2.917-5.15,5.36-6.701c2.441-1.549,5.211-2.322,8.31-2.322C416.254,49.779,417.743,50.018,418.994,50.494z"/>
			<path fill="#DC1A5A" d="M421.854,90.967l3.127-7.861c4.824,3.572,10.333,5.359,16.528,5.359c2.681,0,4.75-0.447,6.21-1.34
				c1.459-0.893,2.189-2.145,2.189-3.752c0-1.371-0.508-2.457-1.52-3.262c-1.014-0.805-2.74-1.504-5.182-2.1l-7.505-1.697
				c-8.22-1.787-12.33-5.986-12.33-12.598c0-2.738,0.773-5.166,2.323-7.281c1.548-2.113,3.722-3.768,6.521-4.959
				s6.046-1.787,9.739-1.787c3.216,0,6.313,0.492,9.292,1.475c2.978,0.982,5.598,2.398,7.862,4.244l-3.306,7.594
				c-4.527-3.336-9.174-5.004-13.938-5.004c-2.563,0-4.558,0.479-5.987,1.43c-1.429,0.953-2.144,2.264-2.144,3.932
				c0,1.311,0.431,2.354,1.296,3.127c0.862,0.775,2.337,1.43,4.423,1.967l7.683,1.697c4.468,1.012,7.729,2.576,9.784,4.689
				c2.054,2.115,3.082,4.869,3.082,8.266c0,4.17-1.668,7.475-5.004,9.916c-3.336,2.443-7.893,3.664-13.67,3.664
				C433.169,96.686,426.678,94.779,421.854,90.967z"/>
		</g>
	</g>
	<g>
		<circle fill="#DC1A5A" cx="58.716" cy="58.717" r="58.716"/>
		<g>
			<path fill="#FFFFFF" d="M45.438,39.211c0.393,0,0.67,0.195,0.834,0.588c0.163,0.393,0.245,0.818,0.245,1.275
				c0,0.656-0.131,1.211-0.393,1.67c-0.949,1.08-2.012,1.971-3.189,2.674c-1.179,0.703-2.413,1.27-3.706,1.693
				c-1.292,0.426-2.617,0.719-3.975,0.883s-2.708,0.246-4.049,0.246c-1.702,0-3.509-0.105-5.423-0.32
				c-1.914-0.211-3.82-0.57-5.717-1.078c-1.898-0.508-3.722-1.186-5.473-2.037c-1.75-0.85-3.287-1.93-4.613-3.238
				c-1.325-1.309-2.388-2.855-3.189-4.639s-1.202-3.852-1.202-6.207c0-1.506,0.352-2.953,1.056-4.344
				c0.702-1.391,1.65-2.707,2.846-3.951c1.194-1.242,2.593-2.381,4.195-3.41c1.604-1.031,3.321-1.914,5.153-2.65
				s3.722-1.309,5.669-1.717c1.946-0.41,3.853-0.613,5.717-0.613c2.322,0,4.678,0.254,7.066,0.76
				c2.389,0.508,4.712,1.227,6.969,2.16c2.258,0.932,4.376,2.061,6.355,3.385c1.979,1.326,3.713,2.822,5.202,4.49
				c1.488,1.67,2.658,3.494,3.509,5.473c0.851,1.98,1.275,4.082,1.275,6.307c0,3.926-0.408,7.787-1.227,11.582
				s-1.783,7.574-2.895,11.336c-1.113,3.764-2.25,7.508-3.411,11.238c-1.161,3.729-2.069,7.508-2.724,11.336
				c5.791-7.131,11.14-14.633,16.047-22.502c4.908-7.867,9.356-15.955,13.35-24.266c0.49-0.688,1.087-1.188,1.79-1.498
				c0.704-0.311,1.399-0.467,2.087-0.467c0.522,0,0.933,0.256,1.226,0.762c0.295,0.508,0.507,1.152,0.639,1.938
				c0.131,0.785,0.204,1.67,0.221,2.65c0.017,0.982,0.024,1.947,0.024,2.896c-1.439,3.436-2.937,6.902-4.489,10.404
				c-1.555,3.5-2.971,7.041-4.246,10.623c-1.275,3.584-2.33,7.215-3.165,10.896c-0.834,3.68-1.252,7.4-1.252,11.164
				c0,0.916,0.106,1.676,0.32,2.281c0.212,0.605,0.473,1.088,0.784,1.447c0.311,0.361,0.67,0.613,1.08,0.762
				c0.409,0.146,0.81,0.221,1.202,0.221c0.981,0,2.062-0.441,3.239-1.326c1.177-0.883,2.404-2.027,3.681-3.436
				c1.275-1.404,2.552-2.969,3.828-4.686c1.274-1.717,2.485-3.41,3.631-5.078c1.145-1.67,2.176-3.215,3.092-4.639
				s1.669-2.543,2.258-3.361c-0.491-2.912-0.81-5.783-0.958-8.613c-0.146-2.83-0.221-5.324-0.221-7.484
				c0-2.092,0.106-4.398,0.32-6.918c0.212-2.52,0.556-5.063,1.03-7.633c0.474-2.566,1.104-5.063,1.89-7.482
				c0.785-2.422,1.732-4.564,2.846-6.43c1.111-1.865,2.405-3.361,3.877-4.49s3.157-1.693,5.056-1.693
				c1.373,0,2.551,0.359,3.533,1.08c0.98,0.719,1.798,1.678,2.453,2.871c0.653,1.193,1.137,2.551,1.447,4.072
				s0.467,3.068,0.467,4.639c0,1.93-0.417,4.4-1.252,7.41c-0.834,3.01-1.987,6.338-3.459,9.986
				c-1.474,3.648-3.232,7.51-5.276,11.582c-2.045,4.074-4.277,8.121-6.698,12.146c0.491,1.439,1.038,2.789,1.644,4.049
				s1.301,2.348,2.086,3.264s1.651,1.635,2.601,2.158s1.995,0.785,3.141,0.785l2.896-1.668l0.932,1.373
				c0,0.656-0.254,1.227-0.76,1.719c-0.508,0.49-1.122,0.891-1.841,1.201c-0.72,0.313-1.464,0.541-2.233,0.688
				c-0.77,0.148-1.397,0.221-1.89,0.221c-1.177,0-2.25-0.221-3.214-0.662c-0.966-0.441-1.84-1.063-2.626-1.865
				c-0.785-0.801-1.489-1.75-2.11-2.846s-1.177-2.299-1.667-3.607c-2.422,3.73-4.631,7.223-6.626,10.479
				c-1.996,3.256-4.024,6.084-6.085,8.49c-2.062,2.404-4.263,4.301-6.602,5.691s-5.046,2.086-8.122,2.086
				c-0.98,0-1.832-0.359-2.552-1.08c-0.719-0.719-1.317-1.643-1.791-2.773c-0.475-1.127-0.834-2.395-1.08-3.803
				c-0.244-1.406-0.367-2.797-0.367-4.172c0-1.766,0.114-3.523,0.344-5.275c0.229-1.75,0.481-3.459,0.76-5.127
				c0.277-1.67,0.531-3.289,0.761-4.859c0.229-1.57,0.36-3.059,0.393-4.465c-1.569,1.799-3.141,3.885-4.711,6.256
				c-1.57,2.373-3.148,4.793-4.736,7.264c-1.587,2.471-3.157,4.9-4.711,7.287c-1.554,2.389-3.1,4.523-4.638,6.404
				c-1.538,1.883-3.043,3.395-4.515,4.541c-1.472,1.145-2.912,1.717-4.318,1.717c-0.491,0-0.892-0.352-1.202-1.055
				c-0.312-0.703-0.549-1.57-0.712-2.602c-0.164-1.031-0.278-2.117-0.344-3.264c-0.065-1.145-0.098-2.176-0.098-3.092
				c0-2.486,0.277-5.055,0.834-7.705c0.556-2.65,1.276-5.355,2.159-8.121c0.884-2.764,1.856-5.563,2.92-8.393
				c1.063-2.828,2.11-5.676,3.141-8.539c1.03-2.861,1.972-5.742,2.822-8.637s1.505-5.783,1.963-8.662
				c0-3.762-0.621-7.074-1.865-9.938c-1.243-2.861-2.912-5.258-5.005-7.189c-2.095-1.93-4.523-3.387-7.288-4.367
				c-2.765-0.982-5.669-1.473-8.711-1.473c-1.931,0-3.942,0.156-6.036,0.467s-4.016,0.857-5.767,1.643
				c-1.75,0.785-3.198,1.842-4.343,3.166c-1.146,1.324-1.718,3.018-1.718,5.08c0,1.373,0.311,2.625,0.933,3.754
				c0.621,1.129,1.472,2.135,2.552,3.018c1.079,0.883,2.33,1.66,3.755,2.33c1.423,0.672,2.92,1.221,4.489,1.645
				c1.571,0.426,3.182,0.746,4.835,0.957c1.651,0.213,3.246,0.32,4.784,0.32c1.146,0,2.322-0.1,3.533-0.295
				c1.211-0.197,2.396-0.449,3.559-0.762c1.16-0.311,2.282-0.654,3.361-1.029c1.08-0.377,2.078-0.762,2.994-1.154
				C44.947,39.309,45.209,39.211,45.438,39.211z M97.653,48.141c0,1.604,0.082,3.602,0.246,5.988
				c0.163,2.389,0.458,4.891,0.884,7.508c1.767-3.141,3.394-6.264,4.883-9.373c1.488-3.107,2.765-6.086,3.827-8.932
				s1.897-5.479,2.503-7.9s0.908-4.516,0.908-6.281c0-1.67-0.287-2.979-0.859-3.928c-0.572-0.947-1.513-1.422-2.821-1.422
				c-0.786,0-1.57,0.385-2.355,1.152c-0.785,0.77-1.538,1.791-2.257,3.068c-0.721,1.275-1.383,2.748-1.988,4.416
				s-1.129,3.402-1.57,5.201c-0.442,1.801-0.785,3.607-1.03,5.424C97.776,44.879,97.653,46.57,97.653,48.141z"/>
		</g>
	</g>
</g>
</svg>
